<?xml version="1.0" standalone="no"?>
<!DOCTYPE svg PUBLIC "-//W3C//DTD SVG 20010904//EN"
 "http://www.w3.org/TR/2001/REC-SVG-20010904/DTD/svg10.dtd">
<svg version="1.0" xmlns="http://www.w3.org/2000/svg"
 width="700.000000pt" height="700.000000pt" viewBox="0 0 700.000000 700.000000"
 preserveAspectRatio="xMidYMid meet">
<metadata>
Created by potrace 1.14, written by Peter Selinger 2001-2017
</metadata>
<g transform="translate(0.000000,700.000000) scale(0.100000,-0.100000)"
fill="#000000" stroke="none">
<path d="M4862 6102 c-29 -11 -70 -33 -90 -49 -42 -34 -105 -121 -96 -134 14
-24 82 -8 156 37 126 75 179 48 94 -47 -60 -66 -59 -79 1 -79 37 0 60 8 105
36 72 44 112 51 158 27 75 -39 105 -142 57 -198 -27 -32 -90 -43 -139 -25 -79
29 -86 29 -113 8 -30 -24 -33 -54 -4 -63 11 -4 48 -33 82 -64 34 -32 76 -65
92 -74 28 -14 33 -14 65 4 51 27 78 25 86 -7 13 -50 -5 -125 -54 -228 -38 -80
-50 -117 -55 -172 -9 -92 -33 -161 -106 -297 -65 -123 -95 -193 -105 -248 -6
-35 -5 -38 25 -48 47 -16 149 -15 149 2 0 18 60 137 68 137 4 0 6 -33 4 -72
-2 -40 1 -109 7 -153 l9 -80 -35 -32 c-70 -63 -190 -95 -453 -118 -96 -9 -211
-22 -255 -30 -80 -13 -191 -47 -207 -63 -4 -4 4 -24 18 -43 40 -52 54 -90 42
-112 -5 -11 -34 -30 -64 -44 -44 -20 -54 -29 -54 -49 0 -67 -49 -83 -114 -39
-48 33 -56 32 -56 -8 0 -55 -28 -131 -59 -161 -32 -30 -81 -37 -120 -17 -34
19 -27 -18 15 -72 43 -55 44 -90 1 -95 -15 -2 -42 6 -61 17 -18 12 -36 21 -40
21 -3 0 -6 -18 -6 -41 0 -54 -26 -107 -64 -130 -44 -27 -60 -8 -61 70 0 83
-20 100 -29 26 -8 -72 -29 -113 -62 -121 -27 -7 -40 1 -58 38 -17 35 -42 35
-49 -1 -12 -60 -86 -97 -132 -67 -14 9 -25 26 -25 37 0 19 -4 20 -48 14 l-48
-6 -35 58 -34 58 -57 -3 c-64 -3 -72 4 -84 77 -4 22 -10 41 -13 41 -18 0 -46
-32 -75 -86 -28 -53 -34 -59 -60 -56 -22 2 -39 -7 -77 -43 -27 -26 -55 -45
-62 -42 -7 2 -18 32 -25 68 -7 35 -17 68 -22 73 -15 15 -60 -14 -89 -58 -39
-60 -36 -140 8 -223 33 -62 165 -223 182 -223 5 0 12 18 15 41 8 49 25 58 60
30 31 -24 54 -27 54 -7 0 31 37 44 91 33 31 -6 54 -6 59 -1 6 6 6 34 0 72 -12
69 -2 102 30 102 30 0 112 -115 151 -213 49 -120 51 -141 58 -442 8 -321 9
-329 78 -413 51 -62 109 -102 149 -102 19 0 62 15 100 35 36 19 75 35 86 35
11 0 33 -14 50 -30 34 -34 34 -23 -7 -176 l-27 -102 -51 -5 c-58 -7 -86 -23
-124 -74 -23 -30 -28 -46 -28 -94 0 -64 23 -99 76 -118 28 -10 29 -9 29 24 0
57 7 65 60 65 53 0 77 -18 72 -56 -5 -36 32 -108 67 -133 36 -26 93 -37 145
-27 41 8 45 17 14 31 -31 14 -35 50 -7 65 20 11 124 7 170 -6 27 -8 60 28 69
74 l7 42 -39 0 c-75 0 -124 48 -141 138 -10 49 11 130 43 165 25 29 30 30 54
19 41 -19 83 -15 106 10 27 30 25 43 -10 68 -17 12 -30 30 -30 42 0 43 -25
101 -62 143 -41 47 -93 72 -173 83 -49 7 -50 8 -82 70 -40 78 -41 101 -5 140
16 17 39 58 53 92 20 53 30 65 59 77 19 7 49 21 65 30 29 16 182 127 218 158
24 21 22 105 -3 199 -13 45 -18 85 -14 101 6 24 10 26 38 21 17 -4 46 -21 64
-40 l34 -33 -26 -26 c-19 -20 -26 -36 -26 -67 0 -35 4 -42 28 -51 15 -6 45
-12 67 -13 l40 -2 11 -65 c6 -35 16 -83 23 -106 12 -45 57 -97 90 -106 19 -5
21 -1 21 43 0 82 58 132 127 109 40 -13 57 -45 68 -124 10 -72 23 -110 45
-130 19 -18 20 -17 20 14 0 17 6 47 14 66 15 34 92 125 107 125 4 0 5 -34 2
-75 -6 -72 -5 -75 15 -75 27 0 48 33 56 90 4 24 12 50 18 57 15 19 55 6 117
-39 30 -21 63 -38 73 -38 56 0 -87 145 -175 178 -32 12 -75 22 -97 22 -30 0
-42 5 -50 21 -14 26 -55 43 -143 59 -37 7 -77 20 -89 30 l-22 17 22 135 c27
163 29 228 7 228 -27 0 -61 -47 -80 -110 -16 -54 -51 -100 -74 -100 -3 0 -6
20 -6 44 -1 63 -21 92 -102 147 -86 59 -105 84 -67 92 14 2 54 2 90 -1 70 -5
118 9 135 39 15 28 -21 38 -159 45 -118 6 -187 18 -209 35 -29 25 29 115 89
140 25 10 34 10 58 -4 46 -27 130 -22 198 12 84 42 192 78 421 141 l204 56 17
62 c11 40 36 89 66 132 88 125 105 157 112 206 6 40 12 51 35 62 15 7 31 21
36 30 5 9 9 116 10 237 1 312 28 642 75 909 l13 74 -48 75 c-27 41 -54 97 -60
123 -17 75 -39 112 -95 162 -115 105 -253 163 -404 169 -75 3 -106 0 -148 -15z"/>
<path d="M3575 5133 c-16 -2 -71 -10 -121 -18 -115 -19 -256 -19 -309 0 -22 8
-41 15 -42 15 -1 0 -11 -16 -23 -35 -17 -27 -33 -39 -65 -47 -32 -9 -45 -18
-49 -34 -3 -12 -28 -41 -56 -64 -27 -23 -50 -47 -50 -52 0 -6 18 -30 40 -54
22 -24 40 -50 40 -59 0 -24 29 -17 62 15 26 26 30 36 26 75 l-3 45 65 0 c69 0
148 -17 201 -44 31 -15 33 -15 54 8 39 42 113 42 213 1 38 -16 48 -12 54 20 2
14 12 21 35 23 26 3 41 -6 87 -47 57 -52 70 -58 94 -42 11 7 9 17 -13 49 -15
23 -24 46 -20 53 4 6 27 20 51 30 24 11 46 24 49 28 8 15 -53 60 -91 67 -20 4
-55 4 -80 0 -45 -6 -49 -3 -44 38 3 33 -22 40 -105 29z m173 -165 c19 -19 14
-28 -13 -28 -18 0 -25 5 -25 20 0 22 20 26 38 8z"/>
<path d="M3873 4918 c-12 -16 -33 -120 -33 -165 0 -50 16 -73 50 -73 28 0 29
1 18 30 -12 37 0 56 46 68 27 7 31 13 32 42 0 45 25 61 53 35 25 -21 36 -15
26 15 -11 35 -63 60 -126 60 -33 0 -61 -5 -66 -12z"/>
<path d="M3497 4820 c-21 -6 -52 -17 -70 -27 -25 -13 -61 -17 -157 -17 -90 -1
-141 -6 -182 -19 -54 -17 -57 -20 -63 -57 -7 -42 1 -96 15 -105 5 -3 27 -3 49
1 43 7 52 23 26 44 -8 7 -15 23 -15 36 0 30 34 45 103 47 38 2 52 -2 63 -17 9
-13 11 -23 4 -30 -14 -14 -13 -36 2 -36 6 0 22 10 36 23 19 17 35 22 80 22 48
0 72 8 151 48 137 69 158 63 145 -40 -6 -50 -5 -53 15 -53 28 0 43 39 39 98
-4 64 -34 84 -130 88 -40 2 -90 -1 -111 -6z"/>
<path d="M2641 4763 c-39 -59 -47 -87 -32 -119 14 -32 45 -25 79 17 55 69 102
59 102 -21 0 -45 -3 -51 -30 -65 -37 -19 -37 -31 -4 -66 41 -42 16 -74 -119
-150 -72 -40 -127 -92 -127 -119 0 -4 48 -10 108 -12 86 -3 115 -8 150 -26
l42 -22 43 38 c43 40 77 62 96 62 18 0 12 -129 -8 -187 l-18 -52 41 -42 c47
-49 93 -79 120 -79 19 0 20 8 1 96 -6 28 -4 32 19 38 22 5 26 13 32 56 4 28
11 53 15 56 15 9 87 -56 126 -114 29 -42 39 -50 42 -36 4 21 20 44 30 44 4 0
13 -28 19 -61 6 -34 14 -64 17 -67 2 -3 32 3 66 13 47 15 65 16 79 7 16 -10
25 -1 78 77 91 136 115 238 66 292 -25 27 -30 24 -40 -23 -5 -24 -14 -43 -19
-43 -6 0 -18 17 -29 38 -16 34 -21 37 -46 32 -25 -6 -28 -3 -34 29 -9 45 -18
45 -37 4 -13 -31 -18 -33 -84 -41 -110 -12 -142 -11 -170 7 -25 16 -26 21 -19
72 8 64 -4 84 -49 84 -25 0 -42 -11 -83 -55 -35 -38 -56 -54 -67 -49 -9 3 -33
40 -52 82 -36 76 -36 76 -19 113 33 74 -4 123 -148 195 -48 24 -92 44 -97 44
-5 0 -23 -21 -40 -47z"/>
<path d="M4054 4766 c-42 -19 -66 -53 -53 -78 13 -24 29 -23 29 2 0 23 15 27
24 5 9 -24 -2 -40 -43 -63 -44 -25 -56 -38 -65 -69 -5 -16 -3 -23 7 -23 25 0
45 -34 52 -90 l7 -55 111 -70 c62 -39 117 -71 124 -73 7 -2 21 15 33 38 16 32
25 40 38 35 139 -59 215 -67 255 -27 20 20 20 20 -24 31 -68 17 -156 65 -241
131 -76 59 -92 80 -64 80 7 0 19 6 25 14 9 11 3 18 -32 35 -46 22 -81 73 -107
154 -13 41 -26 45 -76 23z"/>
<path d="M3420 4608 c0 -23 5 -26 60 -35 45 -7 60 -7 60 2 0 21 -35 44 -78 51
-40 6 -42 5 -42 -18z"/>
<path d="M3289 4589 c-27 -27 -21 -55 11 -51 26 3 56 26 71 54 8 16 5 18 -26
18 -22 0 -43 -8 -56 -21z"/>
<path d="M3732 4526 c-64 -69 -68 -129 -10 -156 62 -29 75 -79 70 -272 l-2
-86 -42 -14 c-40 -13 -42 -15 -53 -72 -17 -82 -53 -114 -176 -154 l-94 -31
-114 110 c-62 60 -117 109 -121 109 -5 0 -22 -21 -39 -47 -38 -57 -42 -107 -8
-124 12 -6 60 -40 107 -74 47 -35 102 -73 123 -85 l38 -22 39 26 c47 31 48 31
80 6 14 -11 38 -20 54 -20 31 0 69 35 170 154 30 36 58 59 76 62 32 7 50 41
76 144 8 35 20 74 26 85 12 24 49 65 58 65 3 0 14 -23 24 -51 21 -58 45 -63
58 -11 5 17 13 32 18 32 6 0 13 1 17 1 4 1 15 -11 23 -27 9 -15 21 -29 27 -31
6 -2 24 20 41 49 16 29 39 62 51 72 29 27 27 33 -19 40 -56 9 -138 41 -192 75
-56 36 -96 87 -118 152 -13 37 -31 61 -69 94 -29 25 -58 45 -66 45 -7 0 -31
-20 -53 -44z"/>
<path d="M5057 4415 c-43 -51 -87 -77 -165 -95 -29 -7 -56 -19 -61 -29 -8 -15
5 -16 152 -13 89 2 166 8 171 13 5 4 11 33 14 64 4 48 1 59 -18 80 -33 35 -51
31 -93 -20z"/>
<path d="M2561 4115 c-30 -9 -126 -49 -213 -91 -150 -71 -177 -80 -436 -145
-264 -66 -466 -126 -524 -155 -20 -10 -28 -24 -33 -56 -4 -24 -24 -124 -45
-223 -21 -99 -42 -206 -45 -238 -5 -40 -13 -60 -25 -67 -27 -14 -58 -87 -66
-151 -6 -52 -5 -56 20 -72 25 -17 26 -21 26 -112 0 -113 21 -185 89 -307 l46
-83 84 -33 c152 -61 261 -84 386 -80 96 3 117 7 166 30 93 46 100 59 101 175
1 103 -11 146 -44 167 -27 16 -40 -4 -47 -78 -4 -36 -12 -71 -18 -77 -20 -20
-41 -2 -48 43 -10 64 -14 76 -32 82 -22 9 -59 -18 -79 -57 -42 -83 -82 -96
-140 -45 -41 36 -64 82 -64 128 0 35 4 36 48 10 18 -11 43 -20 55 -20 39 0 87
67 87 121 0 15 -7 19 -37 19 -55 1 -112 30 -161 84 -31 34 -42 52 -36 64 40
96 45 160 14 210 -26 42 -22 49 84 150 104 97 210 166 293 187 69 18 102 13
238 -32 58 -20 101 -27 156 -27 67 -1 81 2 117 27 60 43 125 58 239 60 l103 1
5 33 c3 18 7 50 11 71 7 51 24 102 33 102 5 0 12 -15 17 -32 13 -44 50 -51 64
-13 15 39 13 212 -2 222 -7 4 -51 8 -98 9 -153 1 -154 2 -90 80 22 26 44 61
49 76 8 24 7 30 -11 39 -35 19 -176 21 -237 4z"/>
</g>
</svg>
